<svg height="18" viewBox="0 0 24 24" width="18" xmlns="http://www.w3.org/2000/svg"><path d="m14.7272727.09090905-.2315038.00407431c-3.4575209.12188807-6.22304164 2.96321863-6.22304164 6.45047116l-.00072728 2.27245453-2.272.00027276c-.55228475 0-1 .44771525-1 1v4.36363639l.00672773.1166211c.0577651.4973387.48043643.8833789.99327227.8833789l2.272-.0009092.00072728 7.728182c0 .5522847.44771525 1 1 1h4.36363634l.1166212-.0067278c.4973387-.0577651.8833788-.4804364.8833788-.9932722l-.0003636-7.728182 2.2730909.0009092c.4588677 0 .8588508-.3122974.9701425-.7574644l1.0909091-4.3636364.0213455-.11105329c.079682-.58990598-.3791858-1.1314823-.991488-1.1314823l-3.364-.00027276.0003636-2.27245453c0-.0502077.0407014-.09090909.0909091-.09090909h3.2727273c.5522847 0 1-.44771525 1-1v-4.36363638c0-.55228475-.4477153-1-1-1zm2.2727273 2v2.363l-2.2727273.00063638c-1.1547772 0-2.0909091.93613189-2.0909091 2.09090909v3.27272729l.0067278.11662112c.0577651.49733867.4804364.88337887.9932722.88337887l3.0816364-.0002728-.59 2.363-2.4916364.0009092-.1166211.0067277c-.4973387.0577651-.8833789.4804365-.8833789.9932723l-.0003636 7.7270908h-2.364l.0007273-7.7270908-.0067278-.1166211c-.0577651-.4973387-.4804364-.8833789-.99327224-.8833789l-2.27272728-.0009092v-2.363l2.27272728.0002728c.55228475 0 1.00000004-.4477152 1.00000004-.99999999v-3.27272729c0-2.46017753 1.9943679-4.45454547 4.4545454-4.45454547z" fill="#000a29" fill-rule="evenodd"></path></svg>
