<svg height="18" viewBox="0 0 24 24" width="18" xmlns="http://www.w3.org/2000/svg"><path d="m17.909091.09090905c3.2383969 0 5.8775717 2.56557488 5.9958615 5.77506173l.0041385.22493827v11.81818195c0 3.2383969-2.5655749 5.8775717-5.7750618 5.9958615l-.2249382.0041385h-11.81818195c-3.23839695 0-5.87757177-2.5655749-5.99586153-5.7750618l-.00413847-.2249382v-11.81818195c0-3.23839695 2.56557488-5.87757177 5.77506173-5.99586153l.22493827-.00413847zm0 2h-11.81818195c-2.1421954 0-3.89107888 1.68396847-3.9951047 3.80035965l-.0048953.19964035v11.81818195c0 2.1421953 1.68396847 3.8910788 3.80035965 3.9951046l.19964035.0048954h11.81818195c2.1421953 0 3.8910788-1.6839685 3.9951046-3.8003597l.0048954-.1996403v-11.81818195c0-2.209139-1.790861-4-4-4zm-5.0751348 4.55627109c2.3371734.34657343 4.1722901 2.1816902 4.5188637 4.51886366.3394141 2.2888937-.8273064 4.5374279-2.8941826 5.5777444-2.0668764 1.0403167-4.56791145.6378663-6.20410159-.9983239-1.63619018-1.6361902-2.03864059-4.1372252-.99832399-6.20410154 1.0403166-2.06687636 3.28885078-3.2335968 5.57774448-2.89418262zm-3.79127452 3.79336286c-.65240193 1.2961767-.40001778 2.8646223.62606762 3.8907077 1.0260853 1.0260854 2.594531 1.2784696 3.8907077.6260676 1.2961767-.6524019 2.0278488-2.0624996 1.8149959-3.4979075-.207893-1.4019597-1.2698706-2.51585317-2.6445237-2.80027159l-.1893399-.03359211-.1955118-.0232066c-1.3665214-.12196438-2.67964852.6009429-3.30239582 1.8382025zm8.95731832-5.440543c.5522847 0 1 .44771525 1 1s-.4477153 1-1 1-1-.44771525-1-1 .4477153-1 1-1z" fill="#000a29" fill-rule="evenodd"></path></svg>
