<svg height="18" viewBox="0 0 24 24" width="18" xmlns="http://www.w3.org/2000/svg"><path d="m6 7v16h-4v-16zm6.7019312 0-.0009312 2.377.0010933-.01282329c.0050858-.23572379.1545674-2.26416205 3.7397262-2.36062071l.268508-.003556c2.6526728 0 5.2896725 1.32120632 5.2896725 6.0430828v9.9569172h-4.6509936v-9.1910005s.0195914-2.1943513-2.2059893-2.1943513c-2.2255808 0-2.4410859 1.5318334-2.4410859 2.2441359v9.122068h-4.7019312v-15.9808521zm-8.7019312-6c1.1045695 0 2 .8954305 2 2s-.8954305 2-2 2-2-.8954305-2-2 .8954305-2 2-2z" fill="#000a29" fill-rule="evenodd"></path></svg>
