<svg height="18" viewBox="0 0 24 24" width="18" xmlns="http://www.w3.org/2000/svg"><path d="m9.22015686.26831373c-5.86062745 0-8.81596078 4.20156862-8.81596078 7.70603921 0 2.12149016.80321568 4.00874506 2.52568627 4.71145096.28254902.1164706.53576471.0043137.61772549-.3084314.05694118-.2156862.19196079-.7618039.25192157-.99.08239216-.3092941.05047059-.4171372-.17772549-.6876078-.4965098-.5853725-.81443137-1.34372548-.81443137-2.41870588 0-3.11709804 2.33243137-5.90764706 6.07329412-5.90764706 3.31250983 0 5.13247063 2.024 5.13247063 4.72654902 0 3.55709802-1.5740785 6.55901962-3.9103922 6.55901962-1.29066667 0-2.25607843-1.0667843-1.94721569-2.376.37054902-1.56286275 1.08878432-3.24866667 1.08878432-4.37756864 0-1.00941176-.5422353-1.85145098-1.66337255-1.85145098-1.31913726 0-2.37901961 1.36486275-2.37901961 3.19258824 0 1.16427451.39341176 1.95196078.39341176 1.95196078s-1.3497647 5.72-1.58658823 6.7216471c-.47105883 1.995098-.0707451 4.4401176-.03666667 4.6868627.01984314.1466667.20792157.1820392.29333333.0716079.12121569-.1591765 1.69313726-2.0986275 2.2267451-4.0372157.15141177-.5482745.8674902-3.3901569.8674902-3.3901569.42878431.8178824 1.68149019 1.536549 3.01356864 1.536549 3.9647451 0 6.6552157-3.6144706 6.6552157-8.45274508.0004313-3.65933333-3.098549-7.06674509-7.80827454-7.06674509z" transform="translate(3 1)"></path></svg>
