<svg id="Layer_1" data-name="Layer 1" xmlns="http://www.w3.org/2000/svg" viewBox="0 0 195.8 195.8"><defs><style>.cls-1{fill:#f9e7d7;}.cls-2{fill:#30036b;}.cls-3{fill:#b97a6c;}</style></defs><circle class="cls-1" cx="97.9" cy="97.9" r="97.9"/><path class="cls-2" d="M122.15,64.05v67.8H103.63V82.58A18.53,18.53,0,0,1,122.15,64.05Z"/><path class="cls-3" d="M114.71,53.51a9.3,9.3,0,1,1,7.3-7.3A9.32,9.32,0,0,1,114.71,53.51Z"/><path class="cls-2" d="M86.05,69.55a18.45,18.45,0,0,1,5.43,13.1v49a.69.69,0,0,1,0,.25C90,150.2,71.1,158.78,57.61,160.71l-.5-1.5c9.87-2.49,15.76-13,15.9-27.28V64.12A18.44,18.44,0,0,1,86.05,69.55Z"/><circle class="cls-3" cx="82.22" cy="44.39" r="9.31"/></svg>