<svg height="102" viewBox="0 0 192 102" width="192" xmlns="http://www.w3.org/2000/svg"><g fill="none" fill-rule="evenodd"><g fill="#b97a6c"><path d="m61.6217374 98.2773339c0-1.6350638-1.2991608-2.3243467-2.9370589-2.3243467h-2.6360862v4.5304708h2.8618157c1.5437727 0 2.7113294-.6895821 2.7113294-2.2061241m-3.3324432-7.7607919h-2.2407019v4.0970876h2.4853137c1.6190158 0 2.4286668-.9059745 2.4286668-2.0486935 0-1.358812-.809651-2.0483941-2.6732786-2.0483941m5.0458706 7.9379762c0 2.2061238-1.4688155 3.5454818-4.2173374 3.5454818h-4.7826626v-13h4.180145c2.5980355 0 4.1795728 1.1621734 4.1795728 3.4664671 0 1.8517555-1.2236316 2.5212847-1.9202747 2.659261v.039208c.8471295.1774836 2.5605569.9849891 2.5605569 3.2895821"/><path d="m74.1895646 97.2333832v4.7666168h-1.6546484v-4.6681478l-4.1997514-8.3318522h1.7814616l2.636552 5.140739c.3635861.7093358.5636137 1.339657.6183174 1.6350639h.0361929c.0364691-.2954069.2362204-.9257281.6003591-1.6350639l2.6180412-5.140739h1.7090758z"/><path d="m90.9316841 90.516542v4.1365949h4.6141514v1.5560492h-4.6141514v5.7908139h-1.5965193v-13h7v1.516542z"/><path d="m104.337728 90.516542v3.9788649h6.227709v1.5168413h-6.227709v4.4712098h6.997437v1.516542h-9v-13h9v1.516542z"/><path d="m119.92929 90.547654c-1.449361 0-2.390902.7157717-2.390902 1.9344941 0 2.7081741 6.796777 1.3348332 6.796777 6.113013 0 2.0506049-1.751192 3.4048389-4.424471 3.4048389-2.221819 0-3.822239-.851283-4.575529-1.508852l1.073145-1.3736353c.508678.4641493 1.619588 1.3348333 3.502384 1.3348333 1.713428 0 2.730212-.7157717 2.730212-1.8571849 0-3.4048389-6.834828-1.741074-6.834828-6.0936122 0-2.0891125 1.694546-3.5015489 4.123212-3.5015489 3.370494 0 4.104902 2.2055172 4.330632 3.1147089l-1.60042.4062408c-.113008-.677264-.790769-1.9732957-2.730212-1.9732957"/><path d="m130.451475 90.516542h-4.11631v-1.516542h10v1.516542h-4.116606v11.483458h-1.767084z"/><path d="m146.905691 97.2923449-1.667754-4.7076551c-.131267-.3741223-.26225-.8467135-.393518-1.3591113h-.037586c-.130983.5123978-.262251.984989-.393518 1.3591113l-1.648961 4.7076551zm.525071 1.4773339h-5.191194l-1.142968 3.2303212h-1.761435l4.64733-13h1.70534l4.64733 13h-1.76172z"/><path d="m164.335165 100.483458v1.516542h-9v-13h1.950363v11.483458z"/><path d="m173.905887 97.2923449-1.667797-4.7076551c-.131271-.3741223-.262257-.8467135-.393528-1.3591113h-.037588c-.130986.5123978-.262257.984989-.393528 1.3591113l-1.649003 4.7076551zm.525084 1.4773339h-5.191328l-1.142997 3.2303212h-1.761481l4.64745-13h1.705384l4.647166 13h-1.761481z"/><path d="m189.621792 98.2773339c0-1.6350638-1.29912-2.3243467-2.937252-2.3243467h-2.635716v4.5304708h2.861439c1.544009 0 2.711529-.6895821 2.711529-2.2061241m-3.332337-7.7607919h-2.240631v4.0970876h2.485235c1.618964 0 2.428589-.9059745 2.428589-2.0486935 0-1.358812-.809625-2.0483941-2.673193-2.0483941m5.04571 7.9379762c0 2.2061238-1.469055 3.5454818-4.21749 3.5454818h-4.78251v-13h4.180298c2.597953 0 4.17944 1.1621734 4.17944 3.4664671 0 1.8517555-1.223593 2.5212847-1.9205 2.659261v.039208c.847389.1774836 2.560762.9849891 2.560762 3.2895821"/></g><path d="m22.2296715 27.1008258c2.5413709 2.538662 4.1054933 6.0308147 4.1054933 9.9018591v37.0571252c0 .0687306 0 .1263943-.0233233.1837669-1.0693758 13.8072688-15.397495 20.2976462-25.59708908 21.756423l-.37958758-1.1372576c7.46318161-1.8839743 11.92464766-9.8444866 12.02814496-20.6191654v-51.243577c3.8638051.011358 7.3480226 1.5738131 9.8663617 4.1008258" fill="#30036b"/><path d="m75.6192868 44.0917205c-4.7089901-14.910755-12.3367216-23.5622635-20.2305229-21.1122501-8.1726544 2.5360511-8.9268657 13.3827009-4.2752516 28.1098891 4.6810453 14.8200028 12.2793456 23.378402 20.080394 20.9575589 8.1729517-2.5357565 9.0208078-13.410398 4.4253805-27.9551979m-4.4815673 29.3892587c-15.1380355 4.6964237-29.3637042-1.6026005-34.3646278-17.4350202-4.9720871-15.7393103 3.3521825-29.7425438 18.7681793-34.5261839 15.1368463-4.6976024 29.3637042 1.6002432 34.3646278 17.4326629 4.9717898 15.7407836-3.4449354 29.7728928-18.7681793 34.5285412" fill="#30036b"/><path d="m114.335165 13.6058534v59.3941466h-15.0000002v-73h.0368528c4.1408254.01132418 7.8787474 1.56883405 10.5782884 4.0886086 2.625837 2.4509584 4.287307 5.79507496 4.384859 9.5172448" fill="#30036b"/><path d="m141.335165 21v52h-15v-37.7934076c0-7.8459169 6.715733-14.2065924 15-14.2065924" fill="#30036b"/><path d="m190.335165 21v.3867971l-25.730814 50.066605h.84824c9.424794 0 17.564271-5.0254098 23.974156-7.3441257h.282747l-.033976 8.8907236h-40.340353v-.3867971l25.730814-50.1631566h-.848528c-9.424794 0-17.656121 4.2063448-23.688819 6.42969h-.282746l.597453-7.8797363z" fill="#30036b"/><path d="m135.302135 14.8608284c-5.282651 1.0004949-9.827421-3.5429141-8.828144-8.82667059.559161-2.95206584 2.938467-5.33410759 5.89061-5.89418578 5.28638-1.00422454 9.834569 3.54540061 8.830629 8.83164358-.560403 2.95082259-2.941264 5.33006709-5.893095 5.88921279" fill="#b97a6c"/><path d="m11.3351648 7.5c0-4.14224513 3.3578244-7.5 7.5001553-7.5 4.1420204 0 7.4998447 3.35775487 7.4998447 7.5 0 4.1422451-3.3578243 7.5-7.4998447 7.5-4.1423309 0-7.5001553-3.3577549-7.5001553-7.5" fill="#b97a6c"/></g></svg>